<svg width="200" height="200" viewBox="0 0 200 200" fill="none" xmlns="http://www.w3.org/2000/svg">
<path fill-rule="evenodd" clip-rule="evenodd" d="M163.93 138.05C176.81 139.77 184.96 146.98 184.96 159.71C184.96 174.61 173.83 182.97 155.79 186.78C143.98 189.28 130.46 189.98 107.03 190.03L100.28 190.04H92.9C69.46 189.98 55.94 189.27 44.13 186.78C26.1 182.98 14.96 174.6 14.96 159.71C14.96 146.98 23.11 139.77 35.99 138.05C43.49 137.05 47.79 137.27 70.11 139.16C82.81 140.24 91.03 140.72 99.96 140.72C108.89 140.72 117.12 140.24 129.81 139.17C152.13 137.27 156.43 137.04 163.93 138.05ZM106.98 170.03C147.62 169.95 164.96 166.29 164.96 159.71C164.96 159.2 164.98 158.89 164.84 158.67C164.58 158.27 163.78 158.2 161.27 157.87C155.94 157.16 151.65 157.38 131.5 159.09C118.29 160.21 109.6 160.72 99.96 160.72C90.33 160.72 81.63 160.22 68.42 159.09C48.27 157.39 43.98 157.16 38.65 157.87C36.15 158.2 35.34 158.27 35.08 158.67C34.94 158.89 34.96 159.2 34.96 159.71C34.96 166.29 52.3 169.95 92.94 170.03L99.64 170.04L106.98 170.03Z" fill="#F4D24F"/>
<path d="M28.8701 106.42C28.0263 106.966 27.0814 107.337 26.0916 107.51C25.1017 107.684 24.0871 107.657 23.1079 107.431C22.1287 107.204 21.205 106.784 20.3916 106.193C19.5782 105.603 18.8917 104.856 18.3729 103.995C17.8541 103.134 17.5135 102.178 17.3715 101.183C17.2294 100.188 17.2887 99.1751 17.5459 98.2037C17.8031 97.2322 18.2529 96.3223 18.8686 95.528C19.4843 94.7338 20.2534 94.0713 21.1301 93.5801C27.6188 89.5878 35.0916 87.4824 42.7101 87.5001C47.9101 87.5001 51.0101 88.4201 55.6701 90.7001L55.7901 90.7601C58.6701 92.1601 59.7901 92.5001 62.5001 92.5001C65.1301 92.5001 66.0701 92.2001 68.6001 90.8701L68.7101 90.8101C73.1401 88.4701 76.2101 87.5001 81.4701 87.5001C86.8301 87.5001 89.9101 88.5001 94.3501 90.9001C96.8101 92.2401 97.6101 92.5001 100 92.5001C102.39 92.5001 103.18 92.2401 105.59 90.9301C110.08 88.5001 113.16 87.5001 118.52 87.5001C123.82 87.5001 126.88 88.4701 131.39 90.8301L131.44 90.8601C134.02 92.2101 134.94 92.5001 137.5 92.5001C140.07 92.5001 141.02 92.2001 143.65 90.8401C148.25 88.4601 151.32 87.5001 156.59 87.5001C164.14 87.5001 171.52 89.5001 178.63 93.4401C180.315 94.4315 181.546 96.0414 182.061 97.927C182.576 99.8126 182.335 101.825 181.388 103.535C180.442 105.245 178.865 106.519 176.994 107.084C175.123 107.649 173.105 107.461 171.37 106.56C166.443 103.84 161.517 102.487 156.59 102.5C154.12 102.5 153.21 102.78 150.61 104.13L150.55 104.16C145.98 106.53 142.87 107.5 137.5 107.5C132.12 107.5 129.02 106.52 124.47 104.14L124.42 104.11C121.88 102.78 120.99 102.5 118.52 102.5C116.05 102.5 115.23 102.77 112.8 104.09C108.34 106.51 105.29 107.5 100 107.5C94.7101 107.5 91.6601 106.51 87.2401 104.11C84.7601 102.77 83.9401 102.5 81.4701 102.5C79.0401 102.5 78.1701 102.77 75.7301 104.07L75.6101 104.13C71.1101 106.51 67.9401 107.5 62.5001 107.5C57.1301 107.5 53.9601 106.56 49.2101 104.24L49.0901 104.18C46.2901 102.82 45.2401 102.5 42.7101 102.5C37.8101 102.5 33.2401 103.79 28.8701 106.42ZM30.0001 112.5H170C183.33 112.5 183.33 132.5 170 132.5H30.0001C16.6701 132.5 16.6701 112.5 30.0001 112.5Z" fill="#F4D24F"/>
<path fill-rule="evenodd" clip-rule="evenodd" d="M161.73 82.1C176.37 78.78 185 69.82 185 55.14C185 24.04 147.36 4.01001 100 4.01001C52.64 4.01001 15 24.04 15 55.14C15 69.82 23.63 78.78 38.27 82.09C47.57 84.2 55.57 84.33 79.86 83.64C86.5711 83.4142 93.2852 83.2909 100 83.27C105.84 83.27 110.94 83.37 120.14 83.64C144.44 84.34 152.43 84.2 161.74 82.09M100 24C137.78 24 165 38.48 165 55.13C165 59.61 163.49 61.18 157.31 62.58C150.39 64.15 142.9 64.27 120.71 63.63C113.809 63.4049 106.905 63.2849 100 63.27C93.92 63.27 88.67 63.37 79.29 63.64C57.09 64.28 49.61 64.16 42.69 62.59C36.51 61.19 34.99 59.62 34.99 55.14C34.99 38.49 62.22 24.01 99.99 24.01" fill="#F4D24F"/>
<path d="M61 50C61 51.5913 60.3679 53.1174 59.2426 54.2426C58.1174 55.3679 56.5913 56 55 56C53.4087 56 51.8826 55.3679 50.7574 54.2426C49.6321 53.1174 49 51.5913 49 50C49 48.4087 49.6321 46.8826 50.7574 45.7574C51.8826 44.6321 53.4087 44 55 44C56.5913 44 58.1174 44.6321 59.2426 45.7574C60.3679 46.8826 61 48.4087 61 50ZM86 40C86 41.5913 85.3679 43.1174 84.2426 44.2426C83.1174 45.3679 81.5913 46 80 46C78.4087 46 76.8826 45.3679 75.7574 44.2426C74.6321 43.1174 74 41.5913 74 40C74 38.4087 74.6321 36.8826 75.7574 35.7574C76.8826 34.6321 78.4087 34 80 34C81.5913 34 83.1174 34.6321 84.2426 35.7574C85.3679 36.8826 86 38.4087 86 40ZM106 55C106 56.5913 105.368 58.1174 104.243 59.2426C103.117 60.3679 101.591 61 100 61C98.4087 61 96.8826 60.3679 95.7574 59.2426C94.6321 58.1174 94 56.5913 94 55C94 53.4087 94.6321 51.8826 95.7574 50.7574C96.8826 49.6321 98.4087 49 100 49C101.591 49 103.117 49.6321 104.243 50.7574C105.368 51.8826 106 53.4087 106 55ZM126 40C126 41.5913 125.368 43.1174 124.243 44.2426C123.117 45.3679 121.591 46 120 46C118.409 46 116.883 45.3679 115.757 44.2426C114.632 43.1174 114 41.5913 114 40C114 38.4087 114.632 36.8826 115.757 35.7574C116.883 34.6321 118.409 34 120 34C121.591 34 123.117 34.6321 124.243 35.7574C125.368 36.8826 126 38.4087 126 40ZM151 50C151 51.5913 150.368 53.1174 149.243 54.2426C148.117 55.3679 146.591 56 145 56C143.409 56 141.883 55.3679 140.757 54.2426C139.632 53.1174 139 51.5913 139 50C139 48.4087 139.632 46.8826 140.757 45.7574C141.883 44.6321 143.409 44 145 44C146.591 44 148.117 44.6321 149.243 45.7574C150.368 46.8826 151 48.4087 151 50Z" fill="#F4D24F"/>
</svg>
